<svg xmlns="http://www.w3.org/2000/svg" width="567" height="73" viewBox="0 0 567 73" fill="none"><mask id="mask0_9_266" style="mask-type:luminance" maskUnits="userSpaceOnUse" x="0" y="0" width="73" height="73"><path d="M72.368 0.498169H0.454834V72.4114H72.368V0.498169Z" fill="white"></path></mask><g mask="url(#mask0_9_266)"><path d="M0.454834 29.713C0.454834 28.2523 1.33973 26.946 2.70213 26.4404L17.2533 20.8503C17.8432 20.6255 18.3208 20.148 18.5455 19.5581L24.1497 5.00686C24.8379 3.19496 26.8745 2.29606 28.6864 2.98426C29.6134 3.33536 30.3438 4.07986 30.709 5.00686L36.2991 19.5581C36.5238 20.148 37.0014 20.6255 37.5913 20.8503L52.1425 26.4544C53.9544 27.1427 54.8533 29.1793 54.165 30.9911C53.8139 31.9181 53.0695 32.6485 52.1425 33.0137L37.5913 38.6038C37.0014 38.8286 36.5238 39.3061 36.2991 39.896L30.7371 54.363C30.2174 55.782 28.855 56.709 27.3521 56.695C25.9194 56.666 24.6553 55.782 24.1497 54.447L18.5596 39.896C18.3348 39.3061 17.8573 38.8286 17.2674 38.6038L2.70213 32.9856C1.33973 32.48 0.454834 31.1737 0.454834 29.713Z" fill="#BD7AFF"></path><path d="M47.6478 12.8583C47.6478 12.0015 48.1675 11.2431 48.9681 10.9341L55.1201 8.56037C55.3869 8.46197 55.6117 8.23727 55.71 7.97047L58.0837 1.81847C58.491 0.750974 59.6849 0.231372 60.7523 0.638672C61.3001 0.849372 61.7215 1.27067 61.9322 1.81847L64.306 7.97047C64.404 8.23727 64.629 8.46197 64.896 8.56037L71.006 10.906C71.736 11.1728 72.256 11.833 72.368 12.6055C72.48 13.5465 71.947 14.4314 71.062 14.7825L64.91 17.1562C64.643 17.2546 64.418 17.4793 64.32 17.7462L61.9462 23.8981C61.5389 24.9656 60.345 25.4853 59.2775 25.0779C58.7298 24.8673 58.3084 24.4459 58.0977 23.8981L55.724 17.7462C55.6257 17.4793 55.401 17.2546 55.1341 17.1562L48.9822 14.7825C48.1816 14.4735 47.6619 13.7151 47.6619 12.8583H47.6478Z" fill="#1E57FF"></path><path d="M36.4115 56.68C36.4115 55.753 36.9874 54.911 37.8582 54.588L46.2013 51.385C46.4962 51.273 46.735 51.034 46.8473 50.739L50.0497 42.3962C50.4992 41.2444 51.7914 40.6545 52.9572 41.104C53.5471 41.3287 54.0246 41.8062 54.2494 42.3962L57.4517 50.739C57.5641 51.034 57.8029 51.273 58.0978 51.385L66.385 54.574C67.185 54.869 67.747 55.585 67.874 56.428C68 57.453 67.41 58.422 66.455 58.801L58.1119 62.004C57.8169 62.116 57.5781 62.355 57.4658 62.65L54.2634 70.993C53.8139 72.145 52.5217 72.735 51.356 72.285C50.7661 72.06 50.2885 71.583 50.0638 70.993L46.8614 62.65C46.749 62.355 46.5103 62.116 46.2153 62.004L37.8722 58.801C37.0014 58.464 36.4255 57.636 36.4255 56.709L36.4115 56.68Z" fill="#170D2E"></path></g><path d="M126.684 6.19092V66.455H115.767V6.19092H126.684ZM200.459 6.19092V66.455H190.748L162.352 25.4059H161.852V66.455H150.935V6.19092H160.705L189.071 47.2692H189.601V6.19092H200.459ZM222.135 15.3423V6.19092H270.217V15.3423H251.59V66.455H240.762V15.3423H222.135ZM291.916 66.455V6.19092H331.111V15.3423H302.832V31.703H329.08V40.8544H302.832V57.303H331.346V66.455H291.916ZM354.678 66.455V6.19092H365.595V57.303H392.137V66.455H354.678ZM424.958 6.19092V66.455H414.041V6.19092H424.958ZM446.561 15.3423V6.19092H494.643V15.3423H476.016V66.455H465.188V15.3423H446.561ZM512.222 6.19092H524.551L539.294 32.8506H539.882L554.624 6.19092H566.954L545.032 43.9735V66.455H534.144V43.9735L512.222 6.19092Z" fill="#170D2E"></path></svg>