<?xml version="1.0" encoding="UTF-8"?>
<!-- Generator: Adobe Illustrator 26.2.1, SVG Export Plug-In . SVG Version: 6.00 Build 0)  -->
<svg xmlns="http://www.w3.org/2000/svg" xmlns:xlink="http://www.w3.org/1999/xlink" version="1.1" id="Layer_1" x="0px" y="0px" viewBox="0 0 370.24 122.2" style="enable-background:new 0 0 370.24 122.2;" xml:space="preserve">
<style type="text/css">
	.st0{fill:#243746;}
	.st1{fill:#9FCFCA;}
	.st2{fill:#E7D21F;}
	.st3{fill:#A5BAC3;}
</style>
<path class="st0" d="M154.89,31.79h-12.61v32.79h-11.01V31.79h-12.61v-9.47h36.22V31.79z"></path>
<path class="st0" d="M157.82,22.32h10.06v15.74H168c1.54-3.14,5.68-5.09,9.35-5.09c10.24,0,11.07,7.46,11.07,11.9v19.71h-10.06  V49.72c0-4.2,0.47-8.46-5.03-8.46c-3.79,0-5.45,3.2-5.45,6.57v16.75h-10.06V22.32z"></path>
<path class="st0" d="M207.09,32.97c9.53,0,16.22,7.04,16.22,16.28s-6.69,16.22-16.22,16.22s-16.16-6.98-16.16-16.22  S197.56,32.97,207.09,32.97z M207.09,57.77c4.68,0,6.16-4.62,6.16-8.52c0-3.91-1.48-8.58-6.16-8.58s-6.1,4.68-6.1,8.58  C200.99,53.15,202.41,57.77,207.09,57.77z"></path>
<path class="st0" d="M256.76,64.58h-9.77v-4.2h-0.12c-1.89,3.14-5.8,5.09-9.35,5.09c-8.82,0-11.36-5.09-11.36-13.14V33.86h10.06  v17.82c0,4.08,1.78,5.5,4.97,5.5c2.19,0,5.5-1.42,5.5-6.87V33.86h10.06V64.58z"></path>
<path class="st0" d="M291.74,60.85c0,5.03-0.95,14.5-15.33,14.5c-7.16,0-13.91-1.6-15.09-9.83h10.06c0.24,1.36,0.77,2.19,1.72,2.66  c0.89,0.47,2.13,0.65,3.67,0.65c4.79,0,5.27-3.37,5.27-7.16v-2.9h-0.12c-1.83,2.84-4.91,4.5-8.17,4.5c-9.29,0-13.5-6.63-13.5-15.27  c0-8.17,4.79-15.03,13.5-15.03c3.67,0,6.45,1.6,8.23,4.74h0.12v-3.85h9.65V60.85z M276.17,40.66c-4.44,0-5.86,3.91-5.86,7.69  c0,3.61,1.66,7.22,5.8,7.22c4.26,0,6.1-3.31,6.1-7.16C282.21,44.51,280.67,40.66,276.17,40.66z"></path>
<path class="st0" d="M296.07,22.32h10.06v15.74h0.12c1.54-3.14,5.68-5.09,9.35-5.09c10.24,0,11.07,7.46,11.07,11.9v19.71h-10.06  V49.72c0-4.2,0.47-8.46-5.03-8.46c-3.79,0-5.45,3.2-5.45,6.57v16.75h-10.06V22.32z"></path>
<path class="st0" d="M349.25,40.37h-6.21v13.97c0,2.43,1.42,2.96,3.61,2.96c0.83,0,1.72-0.12,2.6-0.12v7.4  c-1.83,0.06-3.67,0.3-5.5,0.3c-8.58,0-10.77-2.49-10.77-10.83V40.37h-5.09v-6.51h5.09v-9.29h10.06v9.29h6.21V40.37z"></path>
<polygon class="st1" points="35.39,54.06 19.21,54.06 19.21,22.32 83.69,22.32 83.69,38.5 35.39,38.5 "></polygon>
<rect x="35.4" y="54.08" class="st2" width="16.18" height="47.13"></rect>
<rect x="67.51" y="54.08" class="st2" width="16.18" height="31.55"></rect>
<rect x="83.69" y="38.5" class="st3" width="16.18" height="15.55"></rect>
<path class="st0" d="M134.18,72.11v13.48h-2.81V72.11H134.18z"></path>
<path class="st0" d="M139.97,72.11l5.33,9.04h0.04v-9.04h2.63v13.48h-2.81l-5.31-9.03h-0.04v9.03h-2.63V72.11H139.97z"></path>
<path class="st0" d="M156.49,72.11c0.82,0,1.59,0.14,2.3,0.42c0.71,0.28,1.32,0.69,1.84,1.25c0.52,0.55,0.92,1.25,1.22,2.08  c0.29,0.83,0.44,1.81,0.44,2.93c0,0.98-0.12,1.89-0.36,2.72c-0.24,0.83-0.6,1.55-1.08,2.15c-0.48,0.6-1.09,1.08-1.81,1.42  c-0.72,0.35-1.57,0.52-2.55,0.52h-5.51V72.11H156.49z M156.29,83.1c0.41,0,0.8-0.07,1.18-0.21c0.38-0.14,0.72-0.37,1.02-0.69  c0.3-0.32,0.54-0.74,0.72-1.26c0.18-0.52,0.27-1.15,0.27-1.89c0-0.68-0.06-1.29-0.19-1.84c-0.12-0.55-0.33-1.02-0.62-1.41  c-0.29-0.39-0.67-0.69-1.14-0.9c-0.47-0.21-1.05-0.31-1.74-0.31h-2v8.5H156.29z"></path>
<path class="st0" d="M173.47,84.57c-0.97,0.89-2.3,1.33-4.01,1.33c-1.73,0-3.07-0.44-4.02-1.32s-1.42-2.24-1.42-4.08v-8.38h2.81  v8.38c0,0.37,0.03,0.72,0.09,1.08s0.19,0.66,0.38,0.93s0.46,0.49,0.8,0.66s0.8,0.25,1.37,0.25c1,0,1.69-0.24,2.08-0.71  c0.38-0.47,0.57-1.21,0.57-2.22v-8.38h2.81v8.38C174.92,82.32,174.43,83.68,173.47,84.57z"></path>
<path class="st0" d="M179.67,82.27c0.15,0.32,0.36,0.57,0.62,0.76c0.26,0.2,0.56,0.34,0.9,0.43s0.7,0.14,1.07,0.14  c0.25,0,0.52-0.02,0.81-0.07c0.29-0.04,0.55-0.13,0.81-0.25c0.25-0.12,0.46-0.3,0.63-0.52c0.17-0.22,0.25-0.5,0.25-0.84  c0-0.36-0.11-0.66-0.33-0.89s-0.51-0.42-0.87-0.57c-0.36-0.15-0.76-0.28-1.22-0.4c-0.45-0.11-0.91-0.24-1.38-0.38  c-0.48-0.13-0.94-0.28-1.4-0.46c-0.45-0.18-0.86-0.42-1.22-0.71c-0.36-0.29-0.65-0.65-0.87-1.09c-0.22-0.43-0.33-0.96-0.33-1.58  c0-0.69,0.14-1.29,0.42-1.8s0.65-0.93,1.1-1.27c0.45-0.34,0.97-0.59,1.54-0.76c0.57-0.16,1.15-0.25,1.72-0.25  c0.67,0,1.31,0.08,1.92,0.24s1.16,0.41,1.64,0.76s0.86,0.8,1.14,1.35c0.28,0.55,0.42,1.21,0.42,1.99h-2.72  c-0.02-0.4-0.1-0.74-0.24-1c-0.14-0.26-0.32-0.47-0.55-0.62s-0.49-0.26-0.78-0.32c-0.29-0.06-0.61-0.09-0.96-0.09  c-0.23,0-0.45,0.03-0.68,0.08c-0.23,0.05-0.43,0.14-0.62,0.26s-0.34,0.28-0.46,0.47c-0.12,0.19-0.18,0.43-0.18,0.72  c0,0.26,0.05,0.48,0.14,0.64c0.1,0.16,0.28,0.31,0.56,0.45s0.67,0.28,1.16,0.42c0.49,0.14,1.14,0.32,1.94,0.53  c0.24,0.05,0.57,0.14,0.99,0.27c0.42,0.13,0.84,0.34,1.26,0.63c0.42,0.29,0.78,0.68,1.08,1.16s0.46,1.1,0.46,1.86  c0,0.62-0.11,1.19-0.34,1.72c-0.23,0.53-0.56,0.98-1.01,1.37c-0.45,0.38-1,0.68-1.66,0.9s-1.43,0.32-2.3,0.32  c-0.7,0-1.39-0.09-2.05-0.27s-1.25-0.47-1.75-0.86c-0.51-0.39-0.91-0.89-1.21-1.49c-0.3-0.6-0.44-1.32-0.43-2.15h2.72  C179.43,81.57,179.51,81.96,179.67,82.27z"></path>
<path class="st0" d="M188.22,74.61v-2.49h10.47v2.49h-3.83v10.99h-2.81V74.61H188.22z"></path>
<path class="st0" d="M207.56,72.11c0.57,0,1.09,0.1,1.55,0.29c0.46,0.2,0.85,0.46,1.18,0.8s0.58,0.73,0.75,1.18  c0.17,0.45,0.26,0.93,0.26,1.44c0,0.79-0.16,1.48-0.47,2.06c-0.32,0.58-0.83,1.02-1.55,1.32v0.04c0.35,0.1,0.63,0.25,0.86,0.46  c0.23,0.21,0.41,0.45,0.55,0.74c0.14,0.28,0.25,0.59,0.31,0.93s0.11,0.68,0.13,1.02c0.01,0.21,0.02,0.47,0.04,0.75  c0.01,0.29,0.03,0.58,0.06,0.89c0.03,0.3,0.08,0.59,0.14,0.86c0.07,0.27,0.16,0.5,0.29,0.69h-2.81c-0.15-0.43-0.25-0.94-0.29-1.53  c-0.04-0.59-0.09-1.16-0.16-1.7c-0.1-0.71-0.3-1.22-0.61-1.55c-0.31-0.33-0.82-0.49-1.52-0.49h-2.81v5.27h-2.81V72.11H207.56z   M206.56,78.21c0.64,0,1.13-0.15,1.45-0.45c0.32-0.3,0.48-0.79,0.48-1.47c0-0.65-0.16-1.13-0.48-1.42s-0.81-0.44-1.45-0.44h-3.08  v3.8H206.56z"></path>
<path class="st0" d="M216.94,72.11v13.48h-2.81V72.11H216.94z"></path>
<path class="st0" d="M229.5,72.11v2.49h-6.75v2.89h6.19v2.3h-6.19v3.3h6.89v2.49h-9.7V72.11H229.5z"></path>
<path class="st0" d="M233.74,82.27c0.16,0.32,0.36,0.57,0.62,0.76c0.26,0.2,0.56,0.34,0.9,0.43c0.35,0.09,0.7,0.14,1.07,0.14  c0.25,0,0.52-0.02,0.81-0.07c0.29-0.04,0.55-0.13,0.8-0.25c0.25-0.12,0.46-0.3,0.63-0.52c0.17-0.22,0.25-0.5,0.25-0.84  c0-0.36-0.11-0.66-0.33-0.89s-0.51-0.42-0.87-0.57c-0.36-0.15-0.76-0.28-1.22-0.4s-0.91-0.24-1.38-0.38  c-0.48-0.13-0.94-0.28-1.4-0.46c-0.45-0.18-0.86-0.42-1.22-0.71c-0.36-0.29-0.65-0.65-0.87-1.09c-0.22-0.43-0.33-0.96-0.33-1.58  c0-0.69,0.14-1.29,0.42-1.8s0.65-0.93,1.1-1.27s0.97-0.59,1.54-0.76c0.57-0.16,1.15-0.25,1.72-0.25c0.67,0,1.31,0.08,1.92,0.24  c0.61,0.16,1.16,0.41,1.64,0.76c0.48,0.35,0.86,0.8,1.14,1.35s0.42,1.21,0.42,1.99h-2.72c-0.02-0.4-0.1-0.74-0.24-1  c-0.14-0.26-0.32-0.47-0.55-0.62s-0.49-0.26-0.78-0.32c-0.29-0.06-0.61-0.09-0.96-0.09c-0.23,0-0.45,0.03-0.68,0.08  c-0.23,0.05-0.43,0.14-0.62,0.26s-0.34,0.28-0.46,0.47s-0.18,0.43-0.18,0.72c0,0.26,0.05,0.48,0.14,0.64  c0.1,0.16,0.28,0.31,0.56,0.45s0.67,0.28,1.16,0.42c0.5,0.14,1.14,0.32,1.94,0.53c0.24,0.05,0.57,0.14,0.99,0.27  c0.42,0.13,0.84,0.34,1.26,0.63c0.42,0.29,0.78,0.68,1.08,1.16c0.3,0.48,0.46,1.1,0.46,1.86c0,0.62-0.11,1.19-0.34,1.72  c-0.23,0.53-0.56,0.98-1.01,1.37c-0.45,0.38-1,0.68-1.66,0.9s-1.43,0.32-2.3,0.32c-0.7,0-1.39-0.09-2.05-0.27s-1.25-0.47-1.75-0.86  c-0.51-0.39-0.91-0.89-1.21-1.49c-0.3-0.6-0.44-1.32-0.43-2.15h2.72C233.51,81.57,233.59,81.96,233.74,82.27z"></path>
<g>
	<path class="st0" d="M349.98,25.57v-1h4.72v1h-1.76v4.75h-1.2v-4.75H349.98z"></path>
	<path class="st0" d="M355.48,24.57h1.5l1.58,3.86h0.07l1.58-3.86h1.5v5.75h-1.18v-3.74h-0.05L359,30.29h-0.8l-1.49-3.73h-0.05v3.76   h-1.18V24.57z"></path>
</g>
</svg>
